<svg xmlns="http://www.w3.org/2000/svg" viewBox="0 0 842.91 738.94"><defs><style>.cls-1{fill:#fff;}.cls-2{fill:#4b4b4b;}.cls-3{fill:#f4ff8a;}.cls-4{fill:#161616;}.cls-5,.cls-6{fill:none;stroke:#000;stroke-miterlimit:10;}.cls-5{stroke-width:3px;}</style></defs><title>Asset 1Minervinha</title><g id="Layer_2" data-name="Layer 2"><g id="Layer_2-2" data-name="Layer 2"><path class="cls-1" d="M504.66,145.19a7.14,7.14,0,0,1-5.71,8c-1.42.31-8-.85-8.62-6s4.88-7.8,4.88-7.8S504.12,139.22,504.66,145.19Z"/><path class="cls-1" d="M480.42,159.45c3.38-.67,3.56,4.32,3.56,4.32s-1.24,3.48-3.56,3.31-3.92-2.15-3.56-3.81S477.93,160,480.42,159.45Z"/><path class="cls-1" d="M326.15,150.54c3.42-.73,3.6,4.68,3.6,4.68s-1.26,3.78-3.6,3.6a3.8,3.8,0,0,1-3.6-4.14C322.91,152.88,323.63,151.08,326.15,150.54Z"/><path class="cls-1" d="M350.63,135.06c.54,6.48-4.32,8.32-5.76,8.66s-8.06-.92-8.71-6.5,4.93-8.46,4.93-8.46S350.09,128.58,350.63,135.06Z"/><path class="cls-1" d="M797.21,256c21.27,40.23,3.07,65.33-31.5,96.53l0,0c-8.73,7.88-18.5,16.14-28.94,25.13-41.57,35.79-82.48,24-97.06,17.88a52.6,52.6,0,0,1-5.6-2.66,144.23,144.23,0,0,0-8.22-24.58c-5.76-13-8.64-29.52-1.44-23.76.51.41.88.53,1.12.41,1-.49-6.64-19.88-23.27-40.44,2.35-22,52.39-40.61,52.39-40.61S770.57,205.62,797.21,256Z"/><path class="cls-1" d="M339.29,1.86c48.6,5,50.81,25.73,50.81,25.73C367,33.77,315.59,39.29,292,44.82a35.4,35.4,0,0,0-5.16,1.64h0S290.69-3.18,339.29,1.86Z"/><path class="cls-1" d="M504.7,5.82c50.56-.72,48,54.09,48,54.09-37.07-21.1-93.46-27.25-101.3-26.13C451.37,33.78,454.13,6.54,504.7,5.82Z"/><path class="cls-1" d="M583.37,209.22s-10.8-8.64-12.24,7.92-.94,26.36-13.79,50.62c-14.83-7.29-31.43-12.66-42.73-13.9-1.1-.12-4.68-.49-4.79-1.4-.24-2.13,16.31-5.44,16.31-5.44L506,245.22c-29.52,6.84-100.8-10.44-100.8-10.44C403,242,280,242,280,242s25.8,10.08-1.56,11.52c-4.87.26-9.87,2.2-14.83,5.28-.12-.6-10-48.92-5-61.8s-9.36,0-9.36,0,14.4-122.4,74.16-126.72,82.08,18,87.84,17.28,15.84,11.52,38.16-5.76,81.36-7.92,98.64,18S581.93,184,583.37,209.22Zm-56.52-55.11S524,121.28,490.49,121c0,0-38.52-.31-36,31s36,35.28,36,35.28S522.53,195.13,526.85,154.11Zm-117,49s25.92,3.88,23.76-31-23.76-30.92-23.76-30.92-20.88-3.24-23,29.88S409.85,203.1,409.85,203.1ZM371,147.66c1.44-33.84-33.12-39.24-33.12-39.24s-31.68,0-38.52,35.64S333.53,179,333.53,179,369.53,181.5,371,147.66Z"/><path class="cls-1" d="M203.22,361.48c.5-.8,14-22.42,10.43-9.34-1.74,6.43-2.22,22.85-2.41,38.76,0,0-5.63,3.93-15.07,9.39-35.82,20.72-126.42,63.53-172-2.19.76-1.35,1.92-3.34,3.41-5.71,3.23-5.12,7.2-11.41,12.91-16.85a56.5,56.5,0,0,1,10.8-7.92,427.51,427.51,0,0,1,39.6-20.16c33.66-14.79,47.74-19,57.6-21.6,2.41-.63,4.41-1.12,5.76-1.44l63.92-10.32a70.4,70.4,0,0,0-3.08,6.36C210.84,331.09,203.45,360.56,203.22,361.48Z"/><path class="cls-1" d="M602.26,304.55c16.63,20.56,24.24,39.95,23.27,40.44-.24.12-.61,0-1.12-.41-7.2-5.76-4.32,10.8,1.44,23.76a144.23,144.23,0,0,1,8.22,24.58,218.44,218.44,0,0,1,5.6,50.28,192.66,192.66,0,0,1-.86,19.46s-8.46-10.58-11.52-10.08c-5.92,1-3.55,45.27,0,87.84l-7.92-7.92s-2.88,41-23,65.16a53,53,0,0,1-4.71,5c-18.63,17.25-36.69,6.5-36.69,6.5l-1,.41c-1.05-2.46-2.05-4.76-3-6.85-9.72-22-34.2-3.24-63.36-9.72s-38.88,0-38.88,0-3.16,10.94-7,25.2c-11.34,2.87-39.94,0-39.94,0-5.89-17.94-11.36-20.52-11.36-20.52s-31,1.08-55.8,6.84-42.12,3.84-42.12,3.84S287,614.4,280,622.74c-2.49,2.45-5.08,2.94-7.2,3.84-4.62,2-9.35.29-14-3.8-21.43-18.84-41.2-88.84-41.2-88.84l-6.48,7.2s0-48.24,5.4-64.08S209,455.82,209,455.82l-7.56,5.76s7.56-28.44,9-34.2c.74-3,.62-19.44.83-36.48.19-15.91.67-32.33,2.41-38.76,3.53-13.08-9.93,8.54-10.43,9.34.23-.92,7.62-30.39,11.87-41a70.4,70.4,0,0,1,3.08-6.36c7.58-14.29,26.2-43.38,45.45-55.31h0c5-3.08,10-5,14.83-5.28C305.81,252.06,280,242,280,242s123,0,125.16-7.2c0,0,71.28,17.28,100.8,10.44l20.16,1.8s-16.55,3.31-16.31,5.44c.11.91,3.69,1.28,4.79,1.4,11.3,1.24,27.9,6.61,42.73,13.9a132.17,132.17,0,0,1,15.95,9.14,109.74,109.74,0,0,1,14.76,12.24A157.07,157.07,0,0,1,602.26,304.55Z"/><path class="cls-2" d="M750.41,198.42c53.28-4.32,107.28,35.28,86.4,79.92-20.55,43.94-69.58,73.3-71.1,74.21,34.57-31.2,52.77-56.3,31.5-96.53-26.64-50.4-142.56,7.92-142.56,7.92s-50,18.59-52.39,40.61a157.07,157.07,0,0,0-14.21-15.41,109.74,109.74,0,0,0-14.76-12.24,132.17,132.17,0,0,0-15.95-9.14c12.85-24.26,12.35-34.06,13.79-50.62s12.24-7.92,12.24-7.92c-1.44-25.2-18-83.52-35.28-109.44s-76.32-35.28-98.64-18-32.4,5-38.16,5.76-28.08-21.6-87.84-17.28S249.29,197,249.29,197s14.4-13,9.36,0,4.85,61.2,5,61.8h0c-19.25,11.93-37.87,41-45.45,55.31l-63.92,10.32c-1.35.32-3.35.81-5.76,1.44-9.86,2.57-23.94,6.81-57.6,21.6a427.51,427.51,0,0,0-39.6,20.16,56.5,56.5,0,0,0-10.8,7.92c-5.71,5.44-9.68,11.73-12.91,16.85-1.49,2.37-2.65,4.36-3.41,5.71,0,0-22-17.47-22.66-44.46C1.07,335.17,11.45,320,17.93,311.7c26-33.33,110.26-53.67,219.84-53.28a44.42,44.42,0,0,1-7.2-5.76c-28.51-28.18-13.39-90.74-8.16-102.19,28.32-62,8.16-45.17,8.16-45.17s27.37-47.47,56.28-58.84A35.4,35.4,0,0,1,292,44.82c23.58-5.53,75-11,98.09-17.23,7-1.87,11.41-3.8,11.67-5.81,0,0,39.52,13.44,49.6,12,7.84-1.12,64.23,5,101.3,26.13,10.57,6,19.56,13.24,25.42,21.87,0,0,10.08,14.88,14.88,17.28,0,0-11.52-.48-7.68,3.84,1,1.11,1.69,2,1.76,2,1,.81,18.67,20.42,24.64,70.43a253.5,253.5,0,0,1,1.2,46.8l-16.56,36.24a169.7,169.7,0,0,1,16.56-16.8C623.35,232.4,681.23,204,750.41,198.42Z"/><path class="cls-2" d="M639.67,395.58s12.46,61.32,0,143.4-48,63.66-48,63.66a53,53,0,0,0,4.71-5c20.16-24.12,23-65.16,23-65.16l7.92,7.92c-3.55-42.57-5.92-86.87,0-87.84,3.06-.5,11.52,10.08,11.52,10.08a192.66,192.66,0,0,0,.86-19.46,218.44,218.44,0,0,0-5.6-50.28A52.6,52.6,0,0,0,639.67,395.58Z"/><path d="M575.83,683.34s9.7,35.28,3.58,34.74c-5.83-.52-22.79-16.38-24.36-17.87l-.14-1.38a22.8,22.8,0,0,0,20-15.5Z"/><path class="cls-3" d="M554,609.55c10,23.27,24.43,60.59,21.5,72-.16.6-.33,1.2-.54,1.79a22.8,22.8,0,0,1-20,15.5,31.53,31.53,0,0,1-13.78-2.17,114.17,114.17,0,0,1-22.31,5.06c-9.77,1.24-21.55,1.45-32.8-1.62a51.85,51.85,0,0,1-19.29-9.68,89.6,89.6,0,0,1-11.19.92c-8.61.18-19.87-.87-24.85-6.84-2-2.42-3-5.64-2.36-9.92,1.91-12.85,8.26-37.53,13.38-56.4,3.86-14.26,7-25.2,7-25.2s9.72-6.48,38.88,0,53.64-12.24,63.36,9.72C551.9,604.79,552.9,607.09,554,609.55Z"/><path class="cls-4" d="M490.49,121c33.48.31,36.36,33.14,36.36,33.14-4.32,41-36.36,33.15-36.36,33.15s-33.48-4-36-35.28S490.49,121,490.49,121Zm.12,55.33s23.64-5.6,20.4-24-18.36-19.08-18.36-19.08c-8.34-2.88-25.92,3.24-23.76,21.16S490.61,176.3,490.61,176.3Z"/><path d="M518.82,701.72l.11.85s-16.2,39.81-21.6,32.61S486,700.1,486,700.1C497.27,703.17,509.05,703,518.82,701.72Z"/><path d="M511,152.34c3.24,18.36-20.4,24-20.4,24s-19.56-4-21.72-21.88,15.42-24,23.76-21.16C492.65,133.26,507.77,134,511,152.34Zm-12.06.83a7.14,7.14,0,0,0,5.71-8c-.54-6-9.45-5.81-9.45-5.81s-5.52,2.66-4.88,7.8S497.53,153.48,499,153.17Zm-15,10.6s-.18-5-3.56-4.32c-2.49.5-3.21,2.16-3.56,3.82s1.24,3.65,3.56,3.81S484,163.77,484,163.77Z"/><path d="M430.69,684.5c5,6,16.24,7,24.85,6.84,0,0-22.29,31.6-27.4,28.72S430.69,684.5,430.69,684.5Z"/><path class="cls-4" d="M433.61,172.1c2.16,34.88-23.76,31-23.76,31s-25.2,1.08-23-32c0,0,11.52,11.16,23.4,10.44S433.61,172.1,433.61,172.1Z"/><path class="cls-4" d="M433.61,172.1s-11.52,8.68-23.4,9.4-23.4-10.44-23.4-10.44c2.16-33.12,23-29.88,23-29.88S431.45,137.22,433.61,172.1Z"/><path d="M408.37,683.34s12.28,31.67,10.48,34.74-31-21.64-31-21.64C395.84,696.05,404.23,693,408.37,683.34Z"/><path class="cls-3" d="M313.57,703.18a100.3,100.3,0,0,1-17.48-7.24c-9.74,1.46-17.33,1.09-23.28-.44-15.86-4.06-20.05-16.41-21.9-24.71h0c-.21-.91-.38-1.77-.54-2.56-1.4-7,16.73-30.11,29.64-45.48,7-8.34,12.48-14.4,12.48-14.4s17.28,1.92,42.12-3.84,55.8-6.84,55.8-6.84,5.47,2.58,11.36,20.52c2.92,8.89,5.94,21.54,8.44,39.52,1.61,11.55.66,19.81-1.84,25.64-4.14,9.69-12.53,12.71-20.53,13.1a53.6,53.6,0,0,1-19-3,38.13,38.13,0,0,1-21.09,12.5C335.91,708.55,323.35,706.24,313.57,703.18Z"/><path class="cls-4" d="M337.85,108.42s34.56,5.4,33.12,39.24S333.53,179,333.53,179s-41,.72-34.2-34.92S337.85,108.42,337.85,108.42Zm19.44,37.8c0-18-11.16-23.76-18.36-25.2,0,0-22-2.07-23.76,20s14.76,24.26,16.92,24.26S357.29,164.22,357.29,146.22Z"/><path d="M338.93,121c7.2,1.44,18.36,7.2,18.36,25.2s-23,19.08-25.2,19.08-18.72-2.16-16.92-24.26S338.93,121,338.93,121Zm5.94,22.7c1.44-.34,6.3-2.18,5.76-8.66s-9.54-6.3-9.54-6.3-5.58,2.88-4.93,8.46S343.43,144.06,344.87,143.72Zm-15.12,11.5s-.18-5.41-3.6-4.68c-2.52.54-3.24,2.34-3.6,4.14a3.8,3.8,0,0,0,3.6,4.14C328.49,159,329.75,155.22,329.75,155.22Z"/><path d="M347.72,705.92c-1,2.59-9.25,24.89-14.83,30.84-5.83,6.24-18.94-32.45-19.32-33.58C323.35,706.24,335.91,708.55,347.72,705.92Z"/><path d="M272.81,695.5h0s-25.32,13-27.6,9.07,5.52-33.11,5.7-33.79C252.76,679.09,257,691.44,272.81,695.5Z"/><path class="cls-2" d="M258.81,622.78s-21.52,16.93-35-13.64-35-123.68-32.16-139c0,0,3.91-43.62,4.48-69.81,9.44-5.46,15.07-9.39,15.07-9.39-.21,17-.09,33.5-.83,36.48-1.44,5.76-9,34.2-9,34.2l7.56-5.76s13,5.4,7.56,21.24-5.4,64.08-5.4,64.08l6.48-7.2S237.38,603.94,258.81,622.78Z"/><path class="cls-5" d="M250.91,670.79c1.85,8.3,6,20.65,21.9,24.71,5.95,1.53,13.54,1.9,23.28.44a100.3,100.3,0,0,0,17.48,7.24c9.78,3.06,22.34,5.37,34.15,2.74a38.13,38.13,0,0,0,21.09-12.5,53.6,53.6,0,0,0,19,3c8-.39,16.39-3.41,20.53-13.1,2.5-5.83,3.45-14.09,1.84-25.64-2.5-18-5.52-30.63-8.44-39.52-5.89-17.94-11.36-20.52-11.36-20.52s-31,1.08-55.8,6.84-42.12,3.84-42.12,3.84S287,614.4,280,622.74c-12.91,15.37-31,38.48-29.64,45.48.16.79.33,1.65.54,2.56"/><path class="cls-5" d="M441.71,618.18c3.86-14.26,7-25.2,7-25.2s9.72-6.48,38.88,0,53.64-12.24,63.36,9.72c.93,2.09,1.93,4.39,3,6.85,10,23.27,24.43,60.59,21.5,72-.16.6-.33,1.2-.54,1.79a22.8,22.8,0,0,1-20,15.5,31.53,31.53,0,0,1-13.78-2.17,114.17,114.17,0,0,1-22.31,5.06c-9.77,1.24-21.55,1.45-32.8-1.62a51.85,51.85,0,0,1-19.29-9.68,89.6,89.6,0,0,1-11.19.92c-8.61.18-19.87-.87-24.85-6.84-2-2.42-3-5.64-2.36-9.92C430.24,661.73,436.59,637.05,441.71,618.18Z"/><path class="cls-5" d="M486,700.1s5.91,27.88,11.31,35.08,21.6-32.61,21.6-32.61"/><path class="cls-5" d="M554.93,700.1l.12.11c1.57,1.49,18.53,17.35,24.36,17.87,6.12.54-3.58-34.74-3.58-34.74"/><path class="cls-5" d="M430.69,684.5s-7.66,32.68-2.55,35.56,27.4-28.72,27.4-28.72"/><path class="cls-5" d="M408.37,683.34s12.28,31.67,10.48,34.74-31-21.64-31-21.64"/><path class="cls-5" d="M347.81,705.67l-.09.25c-1,2.59-9.25,24.89-14.83,30.84-5.83,6.24-18.94-32.45-19.32-33.58v0"/><path class="cls-5" d="M250.91,670.78h0c-.18.68-7.95,29.88-5.7,33.79s27.6-9.07,27.6-9.07"/><path class="cls-5" d="M401.77,618.18s28.6,2.87,39.94,0"/><path class="cls-5" d="M203.21,361.5v0c.5-.8,14-22.42,10.43-9.34-1.74,6.43-2.22,22.85-2.41,38.76-.21,17-.09,33.5-.83,36.48-1.44,5.76-9,34.2-9,34.2l7.56-5.76s13,5.4,7.56,21.24-5.4,64.08-5.4,64.08l6.48-7.2s19.77,70,41.2,88.84c4.65,4.09,9.38,5.77,14,3.8,2.12-.9,4.71-1.39,7.2-3.84"/><path class="cls-5" d="M263.62,258.79c-19.25,11.93-37.87,41-45.45,55.31a70.4,70.4,0,0,0-3.08,6.36c-4.25,10.63-11.64,40.1-11.87,41"/><path class="cls-5" d="M554.93,609.14s18.06,10.75,36.69-6.5a53,53,0,0,0,4.71-5c20.16-24.12,23-65.16,23-65.16l7.92,7.92c-3.55-42.57-5.92-86.87,0-87.84,3.06-.5,11.52,10.08,11.52,10.08a192.66,192.66,0,0,0,.86-19.46,218.44,218.44,0,0,0-5.6-50.28,144.23,144.23,0,0,0-8.22-24.58c-5.76-13-8.64-29.52-1.44-23.76.51.41.88.53,1.12.41,1-.49-6.64-19.88-23.27-40.44a157.07,157.07,0,0,0-14.21-15.41,109.74,109.74,0,0,0-14.76-12.24,132.17,132.17,0,0,0-15.95-9.14c-14.83-7.29-31.43-12.66-42.73-13.9-1.1-.12-4.68-.49-4.79-1.4-.24-2.13,16.31-5.44,16.31-5.44L506,245.22c-29.52,6.84-100.8-10.44-100.8-10.44C403,242,280,242,280,242s25.8,10.08-1.56,11.52c-4.87.26-9.87,2.2-14.83,5.28"/><path class="cls-5" d="M263.62,258.79h0c-.12-.6-10-48.92-5-61.8s-9.36,0-9.36,0,14.4-122.4,74.16-126.72,82.08,18,87.84,17.28,15.84,11.52,38.16-5.76,81.36-7.92,98.64,18S581.93,184,583.37,209.22c0,0-10.8-8.64-12.24,7.92s-.94,26.36-13.79,50.62"/><path class="cls-5" d="M433.61,172.1c-2.16-34.88-23.76-30.92-23.76-30.92s-20.88-3.24-23,29.88,23,32,23,32S435.77,207,433.61,172.1Z"/><path class="cls-5" d="M386.81,171.06s11.52,11.16,23.4,10.44,23.4-9.4,23.4-9.4"/><path class="cls-5" d="M337.85,108.42s-31.68,0-38.52,35.64S333.53,179,333.53,179s36,2.52,37.44-31.32S337.85,108.42,337.85,108.42Z"/><path class="cls-5" d="M338.93,121s-22-2.07-23.76,20,14.76,24.26,16.92,24.26,25.2-1.08,25.2-19.08S346.13,122.46,338.93,121Z"/><path class="cls-5" d="M490.49,121s-38.52-.31-36,31,36,35.28,36,35.28,32,7.87,36.36-33.15C526.85,154.11,524,121.28,490.49,121Z"/><path class="cls-5" d="M492.65,133.26s15.12.72,18.36,19.08-20.4,24-20.4,24-19.56-4-21.72-21.88S484.31,130.38,492.65,133.26Z"/><path class="cls-6" d="M341.09,128.76s9-.18,9.54,6.3-4.32,8.32-5.76,8.66-8.06-.92-8.71-6.5S341.09,128.76,341.09,128.76Z"/><path class="cls-6" d="M326.15,150.54c3.42-.73,3.6,4.68,3.6,4.68s-1.26,3.78-3.6,3.6a3.8,3.8,0,0,1-3.6-4.14C322.91,152.88,323.63,151.08,326.15,150.54Z"/><path class="cls-6" d="M495.21,139.38s8.91-.16,9.45,5.81a7.14,7.14,0,0,1-5.71,8c-1.42.31-8-.85-8.62-6S495.21,139.38,495.21,139.38Z"/><path class="cls-6" d="M480.42,159.45c3.38-.67,3.56,4.32,3.56,4.32s-1.24,3.48-3.56,3.31-3.92-2.15-3.56-3.81S477.93,160,480.42,159.45Z"/><path class="cls-5" d="M211.24,390.9s-5.63,3.93-15.07,9.39c-35.82,20.72-126.42,63.53-172-2.19.76-1.35,1.92-3.34,3.41-5.71,3.23-5.12,7.2-11.41,12.91-16.85a56.5,56.5,0,0,1,10.8-7.92,427.51,427.51,0,0,1,39.6-20.16c33.66-14.79,47.74-19,57.6-21.6,2.41-.63,4.41-1.12,5.76-1.44l63.92-10.32"/><path class="cls-5" d="M765.71,352.55c34.57-31.2,52.77-56.3,31.5-96.53-26.64-50.4-142.56,7.92-142.56,7.92s-50,18.59-52.39,40.61h0"/><path class="cls-5" d="M634.07,392.92a52.6,52.6,0,0,0,5.6,2.66c14.58,6.09,55.49,17.91,97.06-17.88,10.44-9,20.21-17.25,28.94-25.13"/><path class="cls-5" d="M765.67,352.57l0,0c1.52-.91,50.55-30.27,71.1-74.21,20.88-44.64-33.12-84.24-86.4-79.92-69.18,5.61-127.06,34-137.52,43.2a169.7,169.7,0,0,0-16.56,16.8l16.56-36.24a253.5,253.5,0,0,0-1.2-46.8c-6-50-23.66-69.62-24.64-70.43-.07-.06-.77-.94-1.76-2-3.84-4.32,7.68-3.84,7.68-3.84-4.8-2.4-14.88-17.28-14.88-17.28-5.86-8.63-14.85-15.86-25.42-21.87-37.07-21.1-93.46-27.25-101.3-26.13-10.08,1.44-49.6-12-49.6-12-.26,2-4.67,3.94-11.67,5.81C367,33.77,315.59,39.29,292,44.82a35.4,35.4,0,0,0-5.16,1.64c-28.91,11.37-56.28,58.84-56.28,58.84s20.16-16.8-8.16,45.17c-5.23,11.45-20.35,74,8.16,102.19a44.42,44.42,0,0,0,7.2,5.76C128.19,258,43.92,278.37,17.93,311.7,11.45,320,1.07,335.17,1.51,353.64c.65,27,22.66,44.46,22.66,44.46"/><path class="cls-5" d="M258.81,622.78s-21.52,16.93-35-13.64-35-123.68-32.16-139c0,0,3.91-43.62,4.48-69.81"/><path class="cls-5" d="M591.62,602.64s35.59,18.42,48-63.66,0-143.4,0-143.4"/><path class="cls-5" d="M286.85,46.45s3.84-49.63,52.44-44.59S390.1,27.59,390.1,27.59"/><path class="cls-5" d="M552.67,59.91s2.59-54.81-48-54.09-53.33,28-53.33,28"/></g></g></svg>