<?xml version="1.0" encoding="UTF-8"?>
<svg width="200" height="200" version="1.1" xmlns="http://www.w3.org/2000/svg">
 <path d="m12 73h8l7-17c4.6448 1.8015 15.067 8.4669 19.639 4.3927 4.8167-4.2926-3.2852-12.366-3.081-17.288 0.7719-18.608 21.626-0.261 25.442 3.8951h1c7.3888-3.5926 6.0862-12.77 7-20 17.634 0 17.896 2.3414 21 19 7.868 1.6224 13.098-6.4881 16-13 5.328 1.9348 8.327 3.9343 14 2v-2c-42.607-17.739-100.46-13.934-116 40z" fill="#c9c9c9"/>
 <path d="m108 63h80l-1-20c-27.045-1.2358-64.976-13.453-79 20m-27-7v9h-4v-8h-7v8c-16.633 0-19 2.3667-19 19h-10v7h10v5h-4l8 16h1c1.1862-9.386-1.0799-32.554 1.5033-39.944 5.7234-3.9668 29.899-0.1869 42.497-3.0558v-13h-7v9h-4v-9l-7.9833 0.04667z" fill="#d9d9d9"/>
 <path d="m6 73v15h34c-6.4635-17.756-17.62-15-34-15m52 0v14h18l1-14h-19z" fill="#008040"/>
 <path d="m144 85h51v-12c-15.785 0-51-7.8345-51 12z" fill="#028040"/>
 <path d="m82 74v10h54c-5.677-16.341-40.354-10-54-10z" fill="#018040"/>
 <path d="m131.67 78.092c1.5482 1.3147 3.8478 3.5475 4.3268 5.9076l-28.182 0.04632 7.2604 11.532 1.9214-3.5786h21l-5 12-6 3 13.315 11.241s1.6292-15.318 2.6849-26.241l17.98 0.19949-5.9795-6.1995-1.1505-1.1193-9.8495 0.11929c0.0554-2.5353 0.70313-5.1006 1.8898-6.8515l-14.129 0.01181z" fill="#c9c9c9"/>
 <path d="m81 92-2 44h20l1-44h-19m36 0c-2.499 7.2683-8.064 7.9809-15 8l10 36h23l-11-26v-1l9-5 5-12h-21m26 0c0 9.009-5.941 36.467-0.933 43.397 4.718 6.528 42.628 1.603 50.933 1.603l1-16h-30v-8h26c0-19.147 5.5447-16.514-25-16v-5h-22m-138 4-2 41h20l1-41h-19m21 0 22 41h25l2-41h-18l-1 16c-9.0049-15.414-5-16-30-16z"/>
 <a>
  <path d="m164 113v8l24.297-6e-3c-1.2168-3.8469-4.1034-7.994-5.2109-7.994h-19.086m24.318 24.263c-7.4172 1.354-32.605 1.4299-33.552 1.4208-30.357-0.29284-46.979-2.1902-48.463-3.4671-4.7338 2.9871-8.9078 21.233-7.8832 26.892 16.56 8.4235 57.705 7.1624 76.639-0.33818 8.9652-3.5516 12.135-17.001 13.26-24.508m-171.32-0.26279c9.6962 30.429 70.507 59.016 98 35l-19-6-1 7h-18c-0.5492-6.96-0.1084-16.647-7-20h-1c-11.925 12.986-11.358 11.727-27 6 7.5656-19.506 4.7998-22.68-15-15l-3-7z" fill="#c9c9c9"/>
 </a>
</svg>
